<svg xmlns="http://www.w3.org/2000/svg" width="21" height="20" viewBox="0 0 21 20" fill="none">
                    <path d="M3.07299 5.2C3.07299 4.32 3.79002 3.6 4.66639 3.6H15.8202C16.2428 3.6 16.6481 3.76857 16.9469 4.06863C17.2457 4.36869 17.4136 4.77565 17.4136 5.2V16.4C17.4136 16.8243 17.2457 17.2313 16.9469 17.5314C16.6481 17.8314 16.2428 18 15.8202 18H4.66639C4.2438 18 3.83851 17.8314 3.53969 17.5314C3.24087 17.2313 3.07299 16.8243 3.07299 16.4V5.2ZM4.66639 6.8V16.4H15.8202V6.8H4.66639ZM6.25979 2H7.8532V3.6H6.25979V2ZM12.6334 2H14.2268V3.6H12.6334V2ZM6.25979 9.2H7.8532V10.8H6.25979V9.2ZM6.25979 12.4H7.8532V14H6.25979V12.4ZM9.4466 9.2H11.04V10.8H9.4466V9.2ZM9.4466 12.4H11.04V14H9.4466V12.4ZM12.6334 9.2H14.2268V10.8H12.6334V9.2ZM12.6334 12.4H14.2268V14H12.6334V12.4Z" fill="#5A607A"/>
                  </svg>