<svg xmlns="http://www.w3.org/2000/svg" width="13" height="18" viewBox="0 0 13 18" fill="none">
<path d="M6.28269 8.58329C5.71454 8.58329 5.16965 8.3638 4.76791 7.9731C4.36616 7.5824 4.14046 7.05249 4.14046 6.49996C4.14046 5.94742 4.36616 5.41752 4.76791 5.02682C5.16965 4.63612 5.71454 4.41663 6.28269 4.41663C6.85085 4.41663 7.39573 4.63612 7.79748 5.02682C8.19922 5.41752 8.42492 5.94742 8.42492 6.49996C8.42492 6.77355 8.36951 7.04446 8.26185 7.29722C8.15419 7.54998 7.9964 7.77964 7.79748 7.9731C7.59855 8.16655 7.36239 8.32001 7.10249 8.42471C6.84258 8.52941 6.56401 8.58329 6.28269 8.58329ZM6.28269 0.666626C4.69186 0.666626 3.16618 1.28121 2.0413 2.37517C0.91641 3.46913 0.284454 4.95286 0.284454 6.49996C0.284454 10.875 6.28269 17.3333 6.28269 17.3333C6.28269 17.3333 12.2809 10.875 12.2809 6.49996C12.2809 4.95286 11.649 3.46913 10.5241 2.37517C9.3992 1.28121 7.87352 0.666626 6.28269 0.666626Z" fill="#5A607A"/>
</svg>