<svg xmlns="http://www.w3.org/2000/svg" width="21" height="20" viewBox="0 0 21 20" fill="none">
                    <path d="M2.08739 4.28918C1.71378 4.70252 1.71378 5.41252 1.71378 6.83085V14.6592C1.71378 15.6642 1.71378 16.1667 1.9837 16.545C2.25277 16.9234 2.72406 17.0825 3.66664 17.4L4.77545 17.7742C5.37614 17.9767 5.838 18.1325 6.22617 18.2325C6.47981 18.2983 6.71203 18.105 6.71203 17.85V5.22502C6.70906 5.12381 6.67173 5.02641 6.60584 4.94802C6.53996 4.86963 6.44924 4.81465 6.34785 4.79168C6.01452 4.70918 5.61349 4.57418 5.06423 4.38918C3.73348 3.94002 3.06767 3.71585 2.56211 3.94335C2.38077 4.02512 2.21905 4.14293 2.08739 4.28918ZM10.814 2.90085L9.49778 3.78835C9.02221 4.10918 8.6726 4.34502 8.37525 4.51252C8.30519 4.55058 8.24663 4.60587 8.20543 4.67285C8.16423 4.73982 8.14182 4.81615 8.14047 4.89418V17.4334C8.14047 17.7417 8.46951 17.935 8.73686 17.7684C9.02392 17.59 9.35297 17.3684 9.75142 17.1L11.0676 16.2125C11.5432 15.8917 11.8928 15.6559 12.1901 15.4884C12.2602 15.4503 12.3188 15.395 12.36 15.328C12.4012 15.261 12.4236 15.1847 12.4249 15.1067V2.56668C12.4249 2.25752 12.0959 2.06502 11.8285 2.23085C11.5415 2.41002 11.2124 2.63168 10.814 2.90085ZM16.8979 2.60002L15.7899 2.22668C15.1893 2.02418 14.7274 1.86835 14.3392 1.76835C14.0856 1.70252 13.8534 1.89585 13.8534 2.15085V14.7759C13.8563 14.8771 13.8937 14.9745 13.9595 15.0528C14.0254 15.1312 14.1161 15.1862 14.2175 15.2092C14.5509 15.2917 14.9519 15.4258 15.5012 15.6117C16.8319 16.0609 17.4977 16.285 18.0033 16.0575C18.1846 15.9757 18.3463 15.8579 18.478 15.7117C18.8516 15.2984 18.8516 14.5884 18.8516 13.17V5.34168C18.8516 4.33668 18.8516 3.83335 18.5817 3.45585C18.3126 3.07752 17.8413 2.91835 16.8987 2.60085L16.8979 2.60002Z" fill="#5A607A"/>
                  </svg>